<svg xmlns="http://www.w3.org/2000/svg" viewBox="0 0 100 100">
  <style>
    @keyframes wiggle1 {
      0%, 100% { transform: rotate(0deg); }
      50% { transform: rotate(5deg); }
    }
    @keyframes wiggle2 {
      0%, 100% { transform: rotate(0deg); }
      50% { transform: rotate(5deg); }
    }
    .tag {
      fill: #ffd54f;
      stroke: #ff6f00;
      stroke-width: 3;
    }
    .tag1 {
      animation: wiggle1 2s ease-in-out infinite;
    }
    .tag2 {
      animation: wiggle2 1s ease-in-out infinite;
    }
    .hole {
      fill: #ff6f00;
    }
    .star {
      fill: #ff6f00;
    }
  </style>
  <g transform="translate(50, 50)">
    <g class="tag1">
      <path class="tag" d="M-30,-40 L30,-40 L30,20 L0,35 L-30,20 Z" />
    </g>
  </g>
  <g transform="translate(50, 50)">
    <g class="tag2">
      <path class="tag" d="M-25,-35 L35,-35 L35,25 L5,40 L-25,25 Z" />
      <circle class="hole" cx="5" cy="-30" r="5" />
    </g>
  </g>
  <g transform="translate(55, 40)">
    <path class="star" d="M-20,-5 L-22,1 L-28,1 L-23,5 L-25,11 L-20,7 L-15,11 L-17,5 L-12,1 L-18,1 Z" transform="rotate(-15)" />
    <path class="star" d="M-1,-2 L-3,4 L-9,4 L-4,8 L-6,14 L-1,10 L4,14 L2,8 L7,4 L1,4 Z" />
    <path class="star" d="M18,-5 L16,1 L10,1 L15,5 L13,11 L18,7 L23,11 L21,5 L26,1 L20,1 Z" transform="rotate(15)" />
  </g>
</svg>
