<svg xmlns="http://www.w3.org/2000/svg" viewBox="0 0 100 100">
  <defs>
    <linearGradient id="starGradient1" x1="0%" y1="0%" x2="100%" y2="100%">
      <stop offset="0%" style="stop-color:#4169E1"/>
      <stop offset="50%" style="stop-color:#FF1493"/>
      <stop offset="100%" style="stop-color:#8A2BE2"/>
    </linearGradient>
    <linearGradient id="starGradient2" x1="0%" y1="0%" x2="100%" y2="100%">
      <stop offset="0%" style="stop-color:#00CED1"/>
      <stop offset="50%" style="stop-color:#FF4500"/>
      <stop offset="100%" style="stop-color:#9400D3"/>
    </linearGradient>
    <linearGradient id="starGradient3" x1="0%" y1="0%" x2="100%" y2="100%">
      <stop offset="0%" style="stop-color:#1E90FF"/>
      <stop offset="50%" style="stop-color:#FF69B4"/>
      <stop offset="100%" style="stop-color:#9370DB"/>
    </linearGradient>
    <linearGradient id="starGradient4" x1="0%" y1="0%" x2="100%" y2="100%">
      <stop offset="0%" style="stop-color:#20B2AA"/>
      <stop offset="50%" style="stop-color:#FF6347"/>
      <stop offset="100%" style="stop-color:#BA55D3"/>
    </linearGradient>
  </defs>
  
  <style>
    @keyframes twinkle1 {
      0%, 100% { opacity: 1; transform: scale(1); }
      50% { opacity: 0.7; transform: scale(0.95); }
    }
    @keyframes twinkle2 {
      0%, 100% { opacity: 0.9; transform: scale(0.98); }
      60% { opacity: 1; transform: scale(1); }
    }
    @keyframes twinkle3 {
      0%, 100% { opacity: 0.8; transform: scale(0.97); }
      40% { opacity: 1; transform: scale(1.02); }
    }
    @keyframes twinkle4 {
      0%, 100% { opacity: 1; transform: scale(1); }
      55% { opacity: 0.75; transform: scale(0.96); }
    }
    .twinkle1 { animation: twinkle1 3.7s ease-in-out infinite 0.2s; }
    .twinkle2 { animation: twinkle2 4.2s ease-in-out infinite 1.1s; }
    .twinkle3 { animation: twinkle3 3.9s ease-in-out infinite 0.7s; }
    .twinkle4 { animation: twinkle4 4.5s ease-in-out infinite 1.5s; }
  </style>

  <!-- Stars -->
  <path fill="url(#starGradient1)" class="twinkle1" d="M35,45 L38,54 L47,57 L38,60 L35,69 L32,60 L23,57 L32,54 Z" />
  <path fill="url(#starGradient2)" class="twinkle2" d="M55,30 L60,43 L75,48 L60,53 L55,66 L50,53 L35,48 L50,43 Z" />
  <path fill="url(#starGradient3)" class="twinkle3" d="M70,40 L73,49 L82,52 L73,55 L70,64 L67,55 L58,52 L67,49 Z" />
  <path fill="url(#starGradient4)" class="twinkle4" d="M55,65 L57,71 L63,73 L57,75 L55,81 L53,75 L47,73 L53,71 Z" />
</svg>
